<?xml version="1.0" encoding="utf-8"?>
<!-- Generator: Adobe Illustrator 21.0.0, SVG Export Plug-In . SVG Version: 6.00 Build 0)  -->
<svg version="1.1" id="Layer_1" xmlns="http://www.w3.org/2000/svg" xmlns:xlink="http://www.w3.org/1999/xlink" x="0px" y="0px"
	 viewBox="0 0 413 93.7" style="enable-background:new 0 0 413 93.7;" xml:space="preserve">
<style type="text/css">
	.st0{fill:#FFFFFF;}
</style>
<g>
	<path class="st0" d="M273,32.1c-0.4-1.3-0.8-2.7-1.2-4.3c-0.4,1.6-0.8,3-1.2,4.3c-0.4,1.3-0.8,2.5-1.2,3.5l-6.5,18.5h18l-6.6-18.6
		C273.8,34.6,273.4,33.4,273,32.1z"/>
	<path class="st0" d="M402.8,42.7l-29-31.8c-2.1-2.3-6.3-4.2-9.4-4.2h-167c-3.1,0-5.6,2.5-5.6,5.6v28.9c0,3.1,0,8.2,0,11.3v28.9
		c0,3.1,2.5,5.6,5.6,5.6h167c3.1,0,7.4-1.9,9.4-4.2l29-31.8C404.9,48.7,404.9,45,402.8,42.7z M233.5,77.2h-12.6V26.6h-17.8V16.5
		h48.1v10.1h-17.8V77.2z M292.1,77.2c-1.1,0-2-0.3-2.7-0.8c-0.7-0.5-1.2-1.2-1.5-2l-4.1-11.6h-24.2l-4.1,11.6
		c-0.3,0.7-0.8,1.3-1.5,1.9c-0.7,0.6-1.6,0.9-2.6,0.9h-9.8l23.7-60.8h12.9l23.7,60.8H292.1z M312.1,55.8c0.9,2.6,2.3,4.9,4,6.7
		c1.7,1.8,3.8,3.2,6.2,4.1c2.4,0.9,5.1,1.4,8.1,1.4c2,0,3.8-0.2,5.4-0.6c1.6-0.4,3.1-1,4.6-1.7V55.6h-6.9c-0.8,0-1.4-0.2-1.9-0.6
		c-0.5-0.4-0.7-1-0.7-1.7v-7h20.9v25.1c-3.1,2.3-6.4,3.9-9.9,5s-7.2,1.6-11.1,1.6c-5,0-9.5-0.8-13.6-2.3c-4-1.5-7.5-3.7-10.4-6.5
		c-2.9-2.8-5.1-6-6.7-9.8c-1.6-3.8-2.3-7.9-2.3-12.4c0-4.5,0.7-8.7,2.2-12.5c1.5-3.8,3.6-7.1,6.4-9.8c2.8-2.7,6.1-4.9,10-6.4
		c3.9-1.5,8.3-2.3,13.2-2.3c2.5,0,4.9,0.2,7,0.6c2.2,0.4,4.2,1,6,1.7c1.8,0.7,3.5,1.6,5.1,2.5c1.5,1,2.9,2.1,4.2,3.2l-3.6,5.6
		c-0.6,0.9-1.3,1.4-2.2,1.6c-0.9,0.2-1.9,0-2.9-0.7c-1-0.6-2-1.2-3-1.7c-1-0.5-2-0.9-3.1-1.3c-1.1-0.4-2.3-0.6-3.6-0.8
		c-1.3-0.2-2.8-0.3-4.4-0.3c-2.8,0-5.4,0.5-7.7,1.5c-2.3,1-4.2,2.4-5.8,4.1c-1.6,1.8-2.8,3.9-3.7,6.4c-0.9,2.5-1.3,5.3-1.3,8.4
		C310.7,50.2,311.2,53.2,312.1,55.8z M389,52.1c-2.9,0-5.3-2.4-5.3-5.3c0-2.9,2.4-5.3,5.3-5.3c2.9,0,5.3,2.4,5.3,5.3
		C394.3,49.7,391.9,52.1,389,52.1z"/>
	<path class="st0" d="M50.9,38.3c-1.7-2.2-3.7-3.8-6-5c-2.3-1.2-5-1.7-7.9-1.7c-3,0-5.7,0.6-8.2,1.8c-2.4,1.2-4.6,2.8-6.6,4.8V9.7
		H8.6v73.4h9c0.9,0,1.6-0.2,2.1-0.6c0.5-0.4,0.9-1,1.1-2l0.5-3.1c0.8,1,1.6,1.8,2.5,2.6c0.9,0.8,1.9,1.4,2.9,2
		c1.1,0.6,2.2,1,3.4,1.3c1.2,0.3,2.7,0.5,4.2,0.5c3.2,0,6.2-0.7,8.8-2c2.6-1.3,4.9-3.2,6.8-5.6c1.9-2.4,3.4-5.3,4.4-8.6
		c1-3.4,1.6-7.1,1.6-11.2c0-3.8-0.5-7.2-1.4-10.3C53.8,43.1,52.6,40.5,50.9,38.3z M41.3,64.7c-0.5,2.1-1.3,3.9-2.3,5.2
		c-1,1.3-2.2,2.3-3.5,2.9c-1.4,0.6-2.9,0.9-4.6,0.9c-1.6,0-3.2-0.3-4.7-0.9c-1.5-0.6-2.9-1.6-4.2-3.1V47.5c1.5-1.8,3-3.2,4.6-4.1
		c1.6-0.9,3.4-1.4,5.5-1.4c1.6,0,3,0.3,4.2,0.8c1.2,0.6,2.2,1.4,3.1,2.7c0.8,1.2,1.5,2.8,1.9,4.7c0.4,1.9,0.6,4.2,0.6,6.9
		C42.1,60,41.8,62.6,41.3,64.7z"/>
	<rect x="62.4" y="9.7" class="st0" width="13.6" height="73.4"/>
	<path class="st0" d="M115.9,68.9c-1.5,1.4-3.1,2.6-4.8,3.4c-1.7,0.8-3.5,1.3-5.4,1.3c-2.6,0-4.5-0.8-5.8-2.3
		c-1.3-1.6-1.9-3.7-1.9-6.6V32.4H84.4v32.2c0,2.8,0.4,5.4,1.1,7.8c0.8,2.4,1.9,4.4,3.3,6.1c1.4,1.7,3.2,3,5.4,4
		c2.1,1,4.6,1.4,7.4,1.4c1.7,0,3.2-0.2,4.7-0.5c1.4-0.3,2.8-0.8,4-1.4c1.2-0.6,2.4-1.3,3.5-2.1c1.1-0.8,2.1-1.7,3.2-2.7l0.9,3.5
		c0.5,1.6,1.6,2.4,3.3,2.4h8.4V32.4h-13.6V68.9z"/>
	<path class="st0" d="M176.3,37.7c-2-2-4.3-3.5-7.1-4.5c-2.7-1-5.7-1.6-9-1.6c-3.8,0-7.3,0.7-10.3,2c-3.1,1.3-5.6,3.1-7.8,5.4
		c-2.1,2.3-3.8,4.9-4.9,8c-1.1,3.1-1.7,6.3-1.7,9.7c0,4.5,0.7,8.4,2,11.8c1.3,3.4,3.1,6.2,5.4,8.5c2.3,2.3,5,4,8,5.2
		c3.1,1.2,6.4,1.7,9.9,1.7c1.8,0,3.6-0.1,5.5-0.4c1.9-0.2,3.8-0.7,5.7-1.3c1.9-0.6,3.7-1.5,5.4-2.6c1.7-1.1,3.3-2.5,4.8-4.2
		l-3.9-4.9c-0.6-0.8-1.4-1.2-2.5-1.2c-0.8,0-1.6,0.2-2.5,0.7c-0.8,0.4-1.8,0.9-2.8,1.5c-1,0.5-2.2,1-3.6,1.5c-1.4,0.4-3,0.7-4.8,0.7
		c-3.7,0-6.7-1.1-8.9-3.3c-2.3-2.2-3.6-5.7-4.1-10.4h30.4c0.6,0,1.1-0.1,1.5-0.2c0.4-0.1,0.7-0.4,0.9-0.8c0.2-0.4,0.4-0.9,0.5-1.6
		c0.1-0.7,0.1-1.5,0.1-2.5c0-3.7-0.5-6.9-1.6-9.8C179.8,42,178.3,39.6,176.3,37.7z M149.2,51.8c0.6-3.4,1.8-6,3.6-7.9
		c1.8-1.8,4.4-2.8,7.6-2.8c1.7,0,3.2,0.3,4.5,0.9c1.2,0.6,2.3,1.4,3.1,2.3c0.8,1,1.4,2.1,1.8,3.4c0.4,1.3,0.6,2.6,0.6,4H149.2z"/>
</g>
</svg>
